{"title":"The Shuttered Room - [Horror] - (1967) - DVDRip - [=Faith=]","uid":14322792,"size":1121530270,"categoryP":"video","categoryS":"movies","magnet":"?xt=urn:btih:6c48a21162bb9256fc7921522313d61f40addade&amp;dn=The+Shuttered+Room+-+%5BHorror%5D+-+%281967%29+-+DVDRip+-+%5B%3DFaith%3D%5D&amp;tr=udp%3A%2F%2Ftracker.leechers-paradise.org%3A6969&amp;tr=udp%3A%2F%2Fzer0day.ch%3A1337&amp;tr=udp%3A%2F%2Fopen.demonii.com%3A1337&amp;tr=udp%3A%2F%2Ftracker.coppersurfer.tk%3A6969&amp;tr=udp%3A%2F%2Fexodus.desync.com%3A6969","seeders":2,"leechers":1,"uploader":"Faithwyn","files":3,"time":1460624977,"description":"The Shuttered Room - 1967\r\n\r\nHorrific murders are traced to a creature that inhabits a very strange house.\r\n\r\n\r\n\r\nThe Film:\r\n\r\nTitle: The Shuttered Room\r\nGenre: Horror, Thriller\r\nReleased: 1967\r\nRuntime: 99 min.\r\nDirector: David Greene\r\nWriters: D.B. LedrovAugust (film), H.P. Lovecraft &amp; D.B. Derleth (book)\r\nStars: Oliver Reed, Gig Young, Carol Lynley\r\nLanguages: English\r\nSubtitles: English\r\nIMDB Rating: 6.3\r\n\r\n\r\n\r\nThe Shuttered Room is a 1967 British horror film starring Gig Young and Carol Lynley as a couple who move into a house with dark secrets. It is based on a \r\nshort story of the same name writen by August Derleth and H. P. Lovecraft. \r\nThe film has also been re-released under the title Blood Island. Although set \r\nin the US, the film was shot in Cornwall and Norfolk, England. The film features \r\na large, half-brick, half-timber watermill, which is destroyed by fire in the closing scenes. The building used was Hardingham Mill on the River Yare in Norfolk.\r\n\r\n\r\nVideo:\r\n\r\nID : 1\r\nFormat : AVC\r\nFormat/Info : Advanced Video Codec\r\nFormat profile :   \r\nFormat settings, CABAC : Yes\r\nFormat settings, ReFrames : 8 frames\r\nCodec ID : V_MPEG4/ISO/AVC\r\nDuration : 1h 39mn\r\nBit rate : 1 278 Kbps\r\nWidth : 720 pixels\r\nHeight : 416 pixels\r\nDisplay aspect ratio : 1.731\r\nFrame rate mode : Constant\r\nFrame rate : 23.976 fps\r\nColor space : YUV\r\nChroma subsampling : 4:2:0\r\nBit depth : 8 bits\r\nScan type : Progressive\r\nBits/(Pixel*Frame) : 0.178\r\nStream size : 911 MiB (85%)\r\nWriting library : x264 core 130 r2273 b3065e6\r\nEncoding settings : see .nfo file for details\r\n\r\n\r\nAudio:\r\n\r\nID : 2\r\nFormat : AC-3\r\nFormat/Info : Audio Coding 3\r\nMode extension : CM (complete main)\r\nFormat settings, Endianness : Big\r\nCodec ID : A_AC3\r\nDuration : 1h 39mn\r\nBit rate mode : Constant\r\nBit rate : 192 Kbps\r\nChannel(s) : 2 channels\r\nChannel positions : Front: L R\r\nSampling rate : 48.0 KHz\r\nBit depth : 16 bits\r\nCompression mode : Lossy\r\nStream size : 137 MiB (13%)\r\nDefault : No\r\nForced : No","torrent":{"xt":"urn:btih:6c48a21162bb9256fc7921522313d61f40addade","amp;dn":"The+Shuttered+Room+-+%5BHorror%5D+-+%281967%29+-+DVDRip+-+%5B%3DFaith%3D%5D","amp;tr":["udp%3A%2F%2Ftracker.leechers-paradise.org%3A6969","udp%3A%2F%2Fzer0day.ch%3A1337","udp%3A%2F%2Fopen.demonii.com%3A1337","udp%3A%2F%2Ftracker.coppersurfer.tk%3A6969","udp%3A%2F%2Fexodus.desync.com%3A6969"],"infoHash":"6c48a21162bb9256fc7921522313d61f40addade","infoHashBuffer":{"type":"Buffer","data":[108,72,162,17,98,187,146,86,252,121,33,82,35,19,214,31,64,173,218,222]},"announce":[],"urlList":[]}}